<svg xmlns="http://www.w3.org/2000/svg" xmlns:xlink="http://www.w3.org/1999/xlink" width="500" zoomAndPan="magnify" viewBox="0 0 375 374.999991" height="500" preserveAspectRatio="xMidYMid meet" version="1.0"><defs><g/><clipPath id="821bffd5d4"><path d="M 218.0625 113.40625 L 285.9375 113.40625 L 285.9375 181.28125 L 218.0625 181.28125 Z M 218.0625 113.40625 " clip-rule="nonzero"/></clipPath><clipPath id="660802fcd5"><path d="M 252 113.40625 C 233.257812 113.40625 218.0625 128.601562 218.0625 147.34375 C 218.0625 166.085938 233.257812 181.28125 252 181.28125 C 270.742188 181.28125 285.9375 166.085938 285.9375 147.34375 C 285.9375 128.601562 270.742188 113.40625 252 113.40625 Z M 252 113.40625 " clip-rule="nonzero"/></clipPath><clipPath id="8ab651f14f"><path d="M 40 113 L 150 113 L 150 222 L 40 222 Z M 40 113 " clip-rule="nonzero"/></clipPath><clipPath id="b8403e9c74"><path d="M 40.914062 167.417969 L 94.964844 113.367188 L 149.015625 167.417969 L 94.964844 221.46875 Z M 40.914062 167.417969 " clip-rule="nonzero"/></clipPath><clipPath id="2f97d05071"><path d="M 40.914062 167.417969 L 94.964844 113.367188 L 149.015625 167.417969 L 94.964844 221.46875 Z M 40.914062 167.417969 " clip-rule="nonzero"/></clipPath></defs><g clip-path="url(#821bffd5d4)"><g clip-path="url(#660802fcd5)"><path fill="#ffbd59" d="M 218.0625 113.40625 L 285.9375 113.40625 L 285.9375 181.28125 L 218.0625 181.28125 Z M 218.0625 113.40625 " fill-opacity="1" fill-rule="nonzero"/></g></g><g clip-path="url(#8ab651f14f)"><g clip-path="url(#b8403e9c74)"><g clip-path="url(#2f97d05071)"><path fill="#0097b2" d="M 40.914062 167.417969 L 94.964844 113.367188 L 149.015625 167.417969 L 94.964844 221.46875 Z M 40.914062 167.417969 " fill-opacity="1" fill-rule="nonzero"/></g></g></g><g fill="#000000" fill-opacity="1"><g transform="translate(209.473829, 179.232342)"><g><path d="M 9.890625 0.359375 C 8.359375 0.359375 7.003906 -0.00390625 5.828125 -0.734375 C 4.660156 -1.460938 3.742188 -2.566406 3.078125 -4.046875 C 2.421875 -5.523438 2.09375 -7.351562 2.09375 -9.53125 C 2.09375 -11.707031 2.4375 -13.535156 3.125 -15.015625 C 3.820312 -16.503906 4.78125 -17.613281 6 -18.34375 C 7.21875 -19.082031 8.625 -19.453125 10.21875 -19.453125 C 11.488281 -19.453125 12.628906 -19.210938 13.640625 -18.734375 C 14.660156 -18.253906 15.535156 -17.46875 16.265625 -16.375 L 16.625 -16.4375 L 16.625 -26.75 L 19.453125 -26.75 L 19.453125 0 L 16.625 0 L 16.625 -2.78125 L 16.265625 -2.859375 C 15.640625 -1.910156 14.789062 -1.132812 13.71875 -0.53125 C 12.65625 0.0625 11.378906 0.359375 9.890625 0.359375 Z M 10.78125 -2.15625 C 12.550781 -2.15625 13.96875 -2.765625 15.03125 -3.984375 C 16.09375 -5.203125 16.625 -7.050781 16.625 -9.53125 C 16.625 -12.019531 16.09375 -13.875 15.03125 -15.09375 C 13.96875 -16.3125 12.550781 -16.921875 10.78125 -16.921875 C 8.945312 -16.921875 7.53125 -16.328125 6.53125 -15.140625 C 5.539062 -13.953125 5.046875 -12.082031 5.046875 -9.53125 C 5.046875 -4.613281 6.957031 -2.15625 10.78125 -2.15625 Z M 10.78125 -2.15625 "/></g></g><g transform="translate(232.259454, 179.232342)"><g><path d="M 18.1875 -8.890625 L 5.0625 -8.890625 C 5.144531 -6.578125 5.703125 -4.875 6.734375 -3.78125 C 7.765625 -2.695312 9.179688 -2.15625 10.984375 -2.15625 C 12.347656 -2.15625 13.441406 -2.394531 14.265625 -2.875 C 15.097656 -3.363281 15.753906 -4.128906 16.234375 -5.171875 L 16.59375 -5.171875 L 18.421875 -4.078125 C 17.867188 -2.691406 16.984375 -1.601562 15.765625 -0.8125 C 14.554688 -0.03125 12.960938 0.359375 10.984375 0.359375 C 9.140625 0.359375 7.550781 0 6.21875 -0.71875 C 4.894531 -1.445312 3.875 -2.550781 3.15625 -4.03125 C 2.445312 -5.507812 2.09375 -7.34375 2.09375 -9.53125 C 2.09375 -11.695312 2.46875 -13.523438 3.21875 -15.015625 C 3.976562 -16.503906 5.007812 -17.613281 6.3125 -18.34375 C 7.625 -19.082031 9.125 -19.453125 10.8125 -19.453125 C 13.257812 -19.453125 15.164062 -18.757812 16.53125 -17.375 C 17.90625 -16 18.601562 -13.957031 18.625 -11.25 C 18.625 -10.1875 18.597656 -9.472656 18.546875 -9.109375 Z M 15.828125 -11.25 C 15.785156 -13.28125 15.335938 -14.753906 14.484375 -15.671875 C 13.628906 -16.597656 12.40625 -17.0625 10.8125 -17.0625 C 9.144531 -17.0625 7.832031 -16.597656 6.875 -15.671875 C 5.925781 -14.742188 5.347656 -13.269531 5.140625 -11.25 Z M 15.828125 -11.25 "/></g></g><g transform="translate(252.605615, 179.232342)"><g><path d="M 12.078125 0 L 8.203125 0 L 0.9375 -19.078125 L 3.984375 -19.078125 L 9.984375 -3.21875 L 10.375 -3.21875 L 16.328125 -19.078125 L 19.3125 -19.078125 Z M 12.078125 0 "/></g></g><g transform="translate(272.830668, 179.232342)"><g><path d="M 8.703125 0.359375 C 7.503906 0.359375 6.394531 0.203125 5.375 -0.109375 C 4.351562 -0.429688 3.488281 -0.867188 2.78125 -1.421875 C 2.082031 -1.972656 1.585938 -2.59375 1.296875 -3.28125 L 2.953125 -5.015625 L 3.328125 -5.015625 C 3.941406 -4.066406 4.6875 -3.351562 5.5625 -2.875 C 6.445312 -2.394531 7.492188 -2.15625 8.703125 -2.15625 C 10.109375 -2.15625 11.175781 -2.429688 11.90625 -2.984375 C 12.644531 -3.535156 13.015625 -4.300781 13.015625 -5.28125 C 13.015625 -6.03125 12.789062 -6.648438 12.34375 -7.140625 C 11.90625 -7.628906 11.1875 -7.992188 10.1875 -8.234375 L 6.96875 -9.03125 C 5.25 -9.445312 3.992188 -10.101562 3.203125 -11 C 2.421875 -11.90625 2.03125 -13.019531 2.03125 -14.34375 C 2.03125 -15.382812 2.289062 -16.285156 2.8125 -17.046875 C 3.34375 -17.816406 4.109375 -18.410156 5.109375 -18.828125 C 6.109375 -19.242188 7.296875 -19.453125 8.671875 -19.453125 C 10.421875 -19.453125 11.800781 -19.207031 12.8125 -18.71875 C 13.820312 -18.226562 14.609375 -17.539062 15.171875 -16.65625 L 13.578125 -15.109375 L 13.234375 -15.109375 C 12.617188 -15.804688 11.953125 -16.3125 11.234375 -16.625 C 10.515625 -16.9375 9.660156 -17.09375 8.671875 -17.09375 C 7.410156 -17.09375 6.445312 -16.867188 5.78125 -16.421875 C 5.113281 -15.972656 4.78125 -15.320312 4.78125 -14.46875 C 4.78125 -13.695312 5.015625 -13.070312 5.484375 -12.59375 C 5.953125 -12.125 6.773438 -11.742188 7.953125 -11.453125 L 11.125 -10.6875 C 12.789062 -10.300781 13.988281 -9.648438 14.71875 -8.734375 C 15.457031 -7.828125 15.828125 -6.6875 15.828125 -5.3125 C 15.828125 -4.195312 15.5625 -3.210938 15.03125 -2.359375 C 14.5 -1.503906 13.695312 -0.835938 12.625 -0.359375 C 11.550781 0.117188 10.242188 0.359375 8.703125 0.359375 Z M 8.703125 0.359375 "/></g></g></g><g fill="#000000" fill-opacity="1"><g transform="translate(64.019057, 182.210322)"><g><path d="M 29.367188 -29.195312 L 22.414062 -29.195312 L 16.359375 -12.792969 L 14.769531 -8.199219 L 13.179688 -12.792969 L 7.171875 -29.195312 L 0.214844 -29.195312 L 12.023438 0 L 17.5625 0 Z M 29.367188 -29.195312 "/></g></g></g><g fill="#000000" fill-opacity="1"><g transform="translate(102.188716, 182.210322)"><g><path d="M 9.015625 0 L 9.015625 -29.195312 L 2.574219 -29.195312 L 2.574219 0 Z M 9.015625 0 "/></g></g></g><g fill="#000000" fill-opacity="1"><g transform="translate(122.368405, 182.210322)"><g><path d="M 23.65625 -9.917969 C 22.457031 -7.34375 19.535156 -5.582031 16.53125 -5.582031 C 11.808594 -5.582031 8.027344 -9.617188 8.027344 -14.597656 C 8.027344 -19.535156 11.808594 -23.613281 16.53125 -23.613281 C 19.492188 -23.613281 22.414062 -21.984375 23.613281 -19.363281 L 30.785156 -19.363281 C 28.808594 -25.332031 23.183594 -29.625 16.53125 -29.625 C 8.242188 -29.625 1.503906 -22.882812 1.503906 -14.597656 C 1.503906 -6.3125 8.242188 0.429688 16.53125 0.429688 C 23.183594 0.429688 28.851562 -3.90625 30.828125 -9.917969 Z M 23.65625 -9.917969 "/></g></g></g><g fill="#000000" fill-opacity="1"><g transform="translate(162.856583, 182.210322)"><g><path d="M 22.839844 -5.839844 L 11.335938 -5.839844 L 23.527344 -29.195312 L 1.71875 -29.195312 L 1.71875 -23.355469 L 13.050781 -23.355469 L 0.859375 0 L 22.839844 0 Z M 22.839844 -5.839844 "/></g></g></g><g fill="#000000" fill-opacity="1"><g transform="translate(195.831057, 182.210322)"><g><path d="M 2.234375 -3.304688 C 2.234375 -1.246094 3.90625 0.429688 6.011719 0.429688 C 8.070312 0.429688 9.789062 -1.246094 9.789062 -3.304688 C 9.789062 -5.410156 8.070312 -7.085938 6.011719 -7.085938 C 3.90625 -7.085938 2.234375 -5.410156 2.234375 -3.304688 Z M 2.234375 -3.304688 "/></g></g></g></svg>